<?xml version="1.0" encoding="utf-8"?>
<!-- Generator: Adobe Illustrator 23.1.0, SVG Export Plug-In . SVG Version: 6.00 Build 0)  -->
<svg version="1.1" id="Capa_1" xmlns="http://www.w3.org/2000/svg" xmlns:xlink="http://www.w3.org/1999/xlink" x="0px" y="0px"
	 viewBox="0 0 1200 1200" enable-background="new 0 0 1200 1200" xml:space="preserve">
<path fill="#F7ABC7" d="M1110.29,292.342c-17.291-31.243-52.259-54.186-89.282-52.766c19.171-16.978,23.378-47.51,22.848-59.131
	c-0.669-14.49-4.902-29.154-9.674-42.779c0,0-45.282,20.336-57.297,50.78c-3.968-21.787-17.702-43.737-23.142-53.943
	c0,0-38.034,44.714-46.851,64.58c-9.422,21.227-9.259,44.076-5.42,66.636c2.453,14.408,5.888,30.282-0.627,44.151
	c-7.004,14.908-19.875,27.864-28.361,42.139V167.011c0-7.742-3.261-15.128-8.983-20.343C793.127,82.524,701.424,50,590.939,50
	c-111.374,0-198.652,27.617-259.405,82.082c-62.583,56.224-94.305,124.297-94.305,202.35c0,0.696,0.027,1.39,0.079,2.084
	c3.269,43.061,15.564,82.525,36.682,118.148c-4.807-6.517-24.51-30.844-24.51-30.844c-3.548,5.886-19.976,36.519-24.157,54.25
	c-10.468-35.489-56.331-52.706-56.331-52.706s-27.391,68.272,11.122,102.154c-16.787-0.981-34.363,2.186-49.712,10.282
	c-17.103,9.023-31.798,23.142-41.191,40.343c-18.709,34.264-13.934,84.279,21.237,106.521c17.874,11.303,42.51,11.231,61.546,2.617
	c-10.636,14.005-17.618,30.543-20.221,47.775c-3.614,23.934,1.554,50.112,17.795,68.908c13.271,15.392,31.694,24.597,50.344,27.413
	v171.301c0,6.818,2.53,13.393,7.101,18.452C304.265,1106.642,418.454,1150,566.404,1150c126.587,0,224.462-29.486,290.91-87.637
	c0.108-0.094,0.215-0.19,0.323-0.287c65.4-59.068,98.561-135.867,98.561-228.261c0-0.63-0.022-1.26-0.064-1.887
	c-6.31-91.822-42.013-169.678-106.233-232.004c-2.045-11.55-2.633-23.374-1.88-35.055c2.481-38.549,20.859-79.023,50.214-104.73
	c24.261-21.247,67.408-31.714,88.64-0.78c13.667,19.913,10.877,50.229-6.7,66.848c-7.476,7.07-19.023,12.253-29.364,12.361
	c7.515-7.211,7.086-19.763-2.293-25.274c-7.399-4.347-16.921-1.872-21.269,5.526c-4.346,7.4-1.69,20.412,5.712,24.761
	c24.871,14.61,63.483-2.553,83.958-18.39c20.184-15.614,29.589-41.455,29.102-66.418c-0.412-21.165-7.506-42.007-20.033-59.27
	c28.841,14.22,65.96,3.195,82.694-22.622C1126.749,349.01,1124.434,317.898,1110.29,292.342z M993.234,194.215
	c5.981-12.145,17.093-21.714,28.821-28.096c-0.171,0.093,3.18,16.512,3.347,18.857c1.169,16.51-2.99,33.318-15.854,44.47
	c-5.122,4.44-12.098,8.189-18.485,10.337C985.573,225.734,986.601,207.684,993.234,194.215z M980.029,249.02
	c-0.079-0.234-23.542,12.318-25.447,13.548c6.977-9.81,14.542-20.078,19.339-32.832C975.256,236.328,977.903,242.779,980.029,249.02
	z M920.435,216.807c5.423-17.13,16.286-30.695,29.387-46.336c3.318,6.546,6.149,13.206,8.106,19.952
	c7.281,25.091-3.842,45.038-17.03,65.559c-6.502,9.987-18.595,32.383-18.84,32.619C922.306,278.538,910.097,249.458,920.435,216.807
	z M863.885,167.012c0,0,0,189.843,0,190.514c0,17.927-24.775,25.52-34.73,10.411C778.412,290.89,736.76,237.27,705.246,208.461
	c-8.913-7.868-18.238-14.515-28.003-20.029l3.792-9.63c10.966,6.021,21.353,13.346,31.119,21.987
	c32.045,29.239,74.311,83.565,125.622,161.468c2.09,3.179,6.025,4.6,9.653,3.508c3.639-1.089,6.132-4.439,6.132-8.239V167.01
	c0-2.419-1.018-4.728-2.809-6.357c-59.114-53.879-134.419-84.197-224.181-90.461V59.858c92.442,6.308,170.093,37.528,231.137,93.166
	C861.634,156.602,863.885,161.699,863.885,167.012z M906.547,759.062c1.601,5.294,3.071,10.653,4.407,16.078
	c-33.394-13.135-54.618-20.671-63.329-31.9v-8.566C847.669,734.68,873.641,745.434,906.547,759.062z M847.625,711.956v-15.678
	l11.544-11.543c0.01,0.007,6.888,2.854,18.08,7.488c7.627,12.906,14.268,26.323,19.91,40.242
	C868.698,720.68,847.666,711.973,847.625,711.956z M913.765,787.673c1.746,8.513,3.177,17.177,4.289,25.995l-41.27-41.27
	L913.765,787.673z M847.916,758.372l-0.291,0.704v-0.995L847.916,758.372z M853.159,763.615
	c7.219,7.219,36.689,36.688,66.595,66.593c0.104,1.3,0.227,2.594,0.318,3.901c-0.005,4.872-0.128,9.687-0.338,14.46
	c-34.876-34.872-71.994-71.991-72.109-72.104v-16.111C853.899,762.958,850.93,761.797,853.159,763.615z M917.293,875.813
	c-1.604,11.979-3.936,23.598-6.95,34.872c-34.511-34.515-83.202-83.203-83.346-83.35h20.629v-21.187
	C847.654,806.19,884.82,843.343,917.293,875.813z M762.238,1060.562c-1.909-6.724-13.219-32.327-26.702-63.129
	c2.947-3.846,5.702-7.938,8.304-12.227c3.921,9.437,7.646,18.396,10.992,26.444c8.803,19.646,15.718,46.426,32.245,55.641
	c-4.565,2.498-9.244,4.894-14.037,7.192C768.943,1070.77,765.272,1066.163,762.238,1060.562z M762.314,1079.499
	c-4.161,2.831-16.815,7.325-23.524,9.104c1.616-10.021,4.544-27.418,7.209-44.566
	C753.656,1063.351,755.82,1074.172,762.314,1079.499z M683.54,1040.185l-0.181,0.077v-2.016
	c13.63-6.468,25.657-14.225,35.943-23.332c3.031-2.663,5.89-5.551,8.666-8.546l7.024,16.785c0.494,27.643-3.595,52.192-7.518,69.101
	c-4.101,1.28-8.267,2.5-12.494,3.666C705.641,1082.933,693.456,1063.688,683.54,1040.185z M703.877,1098.978
	c-10.876,3.108-22.642,5.106-28.994,5.971c6.13-5.971,7.824-29.584,8.35-39.489C689.004,1076.114,698.328,1091.209,703.877,1098.978
	z M707.921,1002.015c-16.723,14.808-38.748,25.751-65.766,32.85l-6.26-9.041c27.109-6.644,48.958-17.172,65.239-31.59
	c27.287-23.971,42.108-66.533,44.05-126.5c0.007-0.286,0.003-0.571-0.017-0.857c-1.425-21.159-6.873-41.621-16.258-61.354
	l0.648,0.683l7.664-7.281c10.714,21.84,16.846,44.595,18.307,68.219C753.618,930.563,737.61,975.93,707.921,1002.015z
	 M522.471,1106.885c-2.844-9.779-7.154-27.087-9.507-48.531c12.61,2.073,25.726,3.175,39.304,3.363
	C541.096,1082.612,529.336,1098.405,522.471,1106.885z M547.975,1089.752c-1.717,8.476-2.475,16.38-2.481,23.781
	c-4.733-0.143-9.43-0.328-14.082-0.568C535.815,1107.673,541.196,1100.07,547.975,1089.752z M413.412,991.968
	c-17.346-15.69-37.372-40.581-59.942-74.457c2.004-4.246,3.619-7.981,4.917-11.234c23.552,35.927,44.306,62.08,62.121,78.197
	c36.134,33.506,80.551,49.796,135.793,49.796c22.464,0,42.869-1.594,61.267-4.692l6.468,9.343
	c-20.212,3.757-42.792,5.673-67.735,5.673C499.144,1044.593,451.095,1026.913,413.412,991.968z M512.103,1111.655
	c-7.041-0.586-13.995-1.28-20.841-2.102c-0.007-0.101-0.02-0.195-0.027-0.296c0-16.239,5.633-33.078,11.454-47.861
	C506.872,1084.259,509.18,1101.484,512.103,1111.655z M462.255,1083.953c-29.765,13.069-68.207-9.964-67.724-45.265
	c2.399-20.406,4.319-22.02,9.344-32.191c3.379,3.053,6.836,5.969,10.361,8.771c-7.688,20.182-10.124,40.716,21.545,54.045
	c23.604,3.431,34.555-5.425,42.046-19.621c4.166,1.389,8.378,2.695,12.674,3.846
	C483.145,1068.702,475.299,1078.632,462.255,1083.953z M480.156,1085.515c-1.586,6.981-2.589,14.227-2.796,22.176
	c-16.095-2.357-31.623-5.388-46.577-9.092c0.034-0.613,0.047-1.199,0.089-1.823C445.773,1100.147,465.56,1097.267,480.156,1085.515z
	 M245.426,740.296c-3.864,0.931-6.589,4.388-6.589,8.363v249.968l-10.201,5.369c-0.03-0.442-0.121-0.873-0.121-1.319v-254.02
	c0-8.776,5.961-16.343,14.492-18.396c1.455-0.349,2.947-0.528,4.439-0.528c7.14,0,13.591,3.951,16.841,10.312
	c30.123,58.935,57.551,108.182,82.167,147.573c-0.353,1.637-1.406,5.75-4.187,12.656c-25.995-40.878-55.103-92.791-87.17-155.53
	C253.292,741.207,249.29,739.376,245.426,740.296z M293.911,483.852c17.452,22.365,38.841,42.977,64.127,61.753
	c0.089,0.066,0.18,0.133,0.272,0.199c41.369,29.939,107.438,70.095,196.49,119.476c2.051,4.447,4.556,8.637,7.431,12.427
	c6.025,7.945,14.225,15.146,22.695,20.397c-1.757,1.972-3.473,3.975-5.114,6.02c-22.118,27.566-37.003,63.874-43.328,98.725
	c-1.092,5.991-1.949,12.024-2.601,18.077c-4.78-14.458-10.202-29.092-18.673-42.769c-23.03-37.187-69.033-43.624-109.164-40.517
	c3.369-0.261,19.34,41.298,21.076,46.344c5.349,15.551,7.163,32.457,17.775,45.721c18.805,23.497,51.453,23.459,71.804,43.668
	c8.172,8.115,14.038,18.584,18.361,29.93c-36.074-31.411-118.935-28.203-164.366,6.05c-1.744-2.599-3.503-5.253-5.28-7.968
	c11.974-27.981,13.044-60.222,11.174-90.187c-3.394-54.382-18.946-108.431-44.371-156.584c-9.756-18.479-23.225-34.59-33.229-52.657
	c-6.08-10.979-4.82-23.859-2.451-35.688C299.003,553.956,308.086,522.05,293.911,483.852z M363.943,274.391
	c18.734,18.737,41.293,41.298,60.736,60.743c6.088,14.799,16.17,29.689,30.304,44.737l-12.822,0.223
	c-0.044-0.036-70.449-72.119-106.936-108.601c-11.69-10.887-23.981-28.505-42.085-29.078c2.245-4.625,6.897-14.4,9.484-18.907
	C329.753,228.66,332.52,248.191,363.943,274.391z M308.464,213.883c2.841-5.936,12.83-20.253,17.491-25.58
	c1.665,9.989,3.997,30.301,8.992,41.954C325.622,219.601,316.62,216.398,308.464,213.883z M485.599,146.749
	c0.79,2.799,3.286,9.028,6.905,17.578c-3.337,1.897-6.525,3.931-9.611,6.06c-7.913-20.051-18.193-40.692-51.947-31.39h0.002
	c-42.332,25.891-13.654,54.67,1.211,95.226c-2.964,6.75-5.452,13.712-7.5,20.868c-13.561-33.402-24.796-61.768-27.677-66.892
	C374.687,130.946,453.618,91.583,485.599,146.749z M439.398,109.793c12.007-4.41,24.675-8.16,37.908-11.339
	c0.047,7.637,0.68,16.048,2.112,24.391C468.203,113.827,453.934,109.153,439.398,109.793z M546.043,112.488
	c-6.858-11.307-12.224-18.761-16.545-23.038c5.267-0.586,10.616-1.09,16.036-1.519C544.775,95.508,544.864,103.673,546.043,112.488z
	 M552.822,144.412c-14.158,2.218-27.143,5.568-38.97,10.01c2.33-23.939,7.231-43.565,10.367-54.307
	C530.851,108.535,542.04,123.986,552.822,144.412z M503.35,153.652c-7.6-21.064-11.087-40.566-11.308-58.436
	c7.585-1.514,15.335-2.861,23.294-3.993C510.778,101.801,508.468,124.934,503.35,153.652z M465.876,184.534
	c-1.351,1.356-2.708,2.707-3.988,4.124c-6.401,7.063-12.069,14.484-17.086,22.21c-3.152-7.587-5.92-14.252-8.128-19.564
	c-5.156-3.802-15.816-48.776,19.715-28.305c1.383,2.431,2.413,4.03,2.09,3.735C459.134,168.31,461.842,174.827,465.876,184.534z
	 M383.645,158.064c-3.283-4.282-6.849-8.548-10.922-12.852c8.398-6.204,17.264-11.962,26.672-17.193
	C391.749,135.953,385.916,146.141,383.645,158.064z M392.541,204.893c-20.532-14.868-36.952-27.984-48.499-34.862
	c3.74-3.731,7.579-7.426,11.611-11.048c1.942-1.742,3.988-3.384,5.996-5.064C374.768,166.983,385.322,185.446,392.541,204.893z
	 M402.335,228.176l18.371,43.904c-1.924,10.764-2.903,21.928-2.903,33.488c0,0.171,0.007,0.343,0.017,0.514
	c0.165,2.764,0.499,5.529,0.944,8.296l-65.691-65.691c-11.3-29.488-15.592-56.515-17.145-70.101
	C349.233,185.744,376.581,202.181,402.335,228.176z M623.896,582.841c27.677,1.327,26.425,40.41,0,41.53
	C596.219,623.044,597.469,583.961,623.896,582.841z M611.68,485.112c7.812,4.313,15.411,8.57,22.902,12.798
	c-2.656,22.234-7.521,44.81-10.687,55.275C619.019,533.597,613.581,507.461,611.68,485.112z M790.698,663.657
	c1.855-5.136,3.494-10.372,4.874-15.715c36.361,9.356,17.556,66.138-19.295,46.147c2.809-4.713,5.415-9.558,7.785-14.537
	C796.931,693.497,812.407,664.834,790.698,663.657z M730.27,745.343c4.4-3.311,8.647-6.814,12.718-10.512
	c6.539,17.921,31.934-2.817,12.133-12.133c3.694-4.067,7.196-8.313,10.505-12.711C795.798,732.372,756.83,777.931,730.27,745.343z
	 M659.546,639.253c32.072,20.859,84.425,51.716,82.547,76.85c-1.85,1.944-3.745,3.839-5.689,5.689
	C712.754,724.217,679.463,671.019,659.546,639.253z M725.588,731.236c-2.937,2.345-7.293,5.993-10.389,8.133
	c-6.201-7.046-12.894-13.978-20.108-20.789c-2.508-6.073-4.271-13.815-7.701-20.155
	C700.065,713.967,713.566,727.001,725.588,731.236z M675.696,699.067c-8.64-7.014-17.842-13.894-27.621-20.631
	c-2.497-11.745-4.177-22.029-4.792-28.285C653.483,663.885,665.856,681.806,675.696,699.067z M762.077,673.693
	c-23.1-1.5-64.52-29.948-91.807-50.314C707.914,626.869,813.516,657.562,762.077,673.693z M727.712,624.821
	c16.552,2.041,42.028,4.432,58.43-2.922c-1.099,9.796-3.066,19.33-5.823,28.529C770.798,639.521,749.967,631.086,727.712,624.821z
	 M765.892,684.094c-4.242,7.453-9.047,14.541-14.368,21.204c-3.894-11.044-15.209-23.337-29.083-35.094
	C736.606,677.68,753.96,684.679,765.892,684.094z M764.587,779.318h35.02v-35.022l13.711-13.709v62.443h-59.782
	c-0.289-0.601-0.558-1.208-0.852-1.809L764.587,779.318z M823.813,803.528v-83.435l13.318-13.319V816.84h-73.98
	c-1.483-4.472-3.128-8.911-4.944-13.313H823.813z M821.225,622.516c-4.901,4.586-12.121,7.266-21.835,6.09
	c0.764-5.39,1.31-10.85,1.578-16.382c3.77,1.724,6.858,1.509,9.186,0.217C813.948,615.744,817.625,619.109,821.225,622.516z
	 M674.315,603.606c37.875-8.474,110.786-25.069,112.876,0C785.982,629.055,702.083,610.47,674.315,603.606z M724.521,583.317
	c8.741-2.545,26.516-7.39,33.963-10.655c4.088,1.592,12.042,6.06,15.76,8.657C763.681,580.194,737.424,581.861,724.521,583.317z
	 M670.418,584.166c14.495-10.787,33.651-23.989,51.773-34.083c8.271,5.24,16.234,10.396,23.88,15.465
	C720.152,575.627,684.668,583.635,670.418,584.166z M659.543,567.956c7.268-12.086,16.609-26.622,26.506-40.141
	c6.023,3.614,11.935,7.197,17.692,10.737C688.918,549.531,672.469,559.853,659.543,567.956z M643.141,557.008
	c0.959-11.851,4.539-30.456,9.511-48.798c5.722,3.293,11.35,6.562,16.867,9.803C660.993,531.895,651.406,545.662,643.141,557.008z
	 M555.46,458.498c0.761-1.117,1.522-2.075,2.281-2.9c6.141,3.5,12.484,7.012,19.036,10.54c1.383,0.741,2.718,1.468,4.091,2.208
	c12.478,25.115,21.97,71.734,23.638,88.721C582.54,527.49,550.398,478.467,555.46,458.498z M457.091,543.555
	c-1.851,5.126-3.488,10.354-4.867,15.685c-37.654-10.668-15.675-66.007,19.287-46.115c-2.809,4.711-5.413,9.554-7.784,14.534
	C450.858,513.717,435.385,542.374,457.091,543.555z M467.47,556.782c9.527,10.915,30.383,19.357,52.659,25.624
	c-14.327-1.856-28.433-2.68-40.218-1.531c-5.492-3.258-10.819-6.446-16.017-9.581C464.874,566.376,466.047,561.526,467.47,556.782z
	 M577.52,583.832c-36.374-5.836-93.615-18.487-103.935-36.317C466.449,506.211,560.065,568.733,577.52,583.832z M481.89,523.129
	c4.242-7.458,9.049-14.547,14.373-21.215c3.901,11.068,15.256,23.388,29.169,35.166C509.296,528.559,493.615,522.615,481.89,523.129
	z M573.477,603.606c-8.844,3.266-23.499,6.401-39.393,8.647c-13.076-7.419-25.568-14.599-37.419-21.518
	C523.301,591.221,549.563,598.621,573.477,603.606z M579.79,621.942c-1.776,4.329-2.665,8.879-3.995,13.763
	c-2.846-1.583-14.531-8.167-17.326-9.729C566.219,624.507,575.271,622.39,579.79,621.942z M505.697,491.104
	c1.84-1.93,3.723-3.814,5.653-5.653c24.046-2.485,56.723,50.715,76.89,82.505C556.171,547.091,503.804,516.232,505.697,491.104z
	 M560.404,508.793c-12.676-15.545-26.18-28.581-38.204-32.818c7.024-5.608,14.51-10.655,22.408-15.061
	C543.927,473.65,550.843,491.128,560.404,508.793z M529.734,453.181c-4.163-4.995-6.177-15.476-6.493-19.312
	c3.98,2.51,14.631,10.021,18.826,12.545C539.268,447.879,532.444,451.576,529.734,453.181z M517.501,461.882
	c-4.393,3.306-8.635,6.806-12.699,10.497c-6.539-17.919-31.934,2.816-12.133,12.135c-3.698,4.069-7.201,8.314-10.51,12.716
	C451.342,473.064,492.682,430.089,517.501,461.882z M483.204,427.893h-35.022v35.02l-13.712,13.712v-62.447h59.397
	c0.576,0.435,1.163,0.87,1.744,1.305L483.204,427.893z M423.974,403.684v83.437l-13.316,13.316v-110.07h54.826
	c4.684,4.424,9.719,8.862,15.103,13.318H423.974z M322.784,281.302c33.164,33.167,98.409,98.413,98.566,98.569h-21.187V400.5
	c-0.057-0.064-63.251-63.246-96.855-96.855c-9.158-11.26-19.913-16.758-23.189-24.53c1.519-6.057,3.237-12.047,5.27-17.938
	C300.942,251.619,309.189,269.628,322.784,281.302z M304.255,334.279c39.101,39.096,95.765,95.762,95.908,95.904v18.946
	c-0.034-0.079-66.161-66.129-108.889-108.889c-5.927-4.763-11.93-10.184-17.649-15.982c0.264-6.26,0.786-12.441,1.539-18.549
	C283.976,314.281,294.761,323.152,304.255,334.279z M371.003,434.81l-82.977-34.273c-7.55-19.898-12.311-40.927-14.314-63.018
	L371.003,434.81z M400.163,463.97v8.002c-0.045-0.002-48.864-20.229-97.581-40.405c-3.169-5.637-6.087-11.377-8.755-17.22
	C351.647,439.561,388.564,448.793,400.163,463.97z M400.163,494.689v16.243l-11.144,11.144c-0.01-0.007-1.505-0.627-4.188-1.739
	c-1.767-1.252-3.575-2.52-5.255-3.736c-22.029-16.358-40.613-34.281-55.883-53.627C363.775,479.724,398.186,494.115,400.163,494.689
	z M593.985,665.256c63.51,35.224,108.518,74.727,134.701,118.051l-7.703,7.318c-25.037-42.525-69.126-81.456-131.971-116.326
	c-85.162-46.521-151.435-85.472-197.817-116.256l6.562-8.02C443.73,580.476,509.52,619.116,593.985,665.256z M615.588,911.334
	c8.296-29.653,35.052-57.333,68.483-52.421c15.184,2.23,26.509,13.106,31.709,27.432c8.063,22.207-1.052,49.971-27.295,52.382
	c4.869-2.261,8.84-6.428,10.673-11.922c3.535-10.593-2.187-22.045-12.78-25.58s-22.044,2.187-25.578,12.779
	c-4.336,12.989,4.015,26.286,14.887,31.585c13.319,6.494,30.451,2.717,42.518-5.991c3.822-2.722,7.164-6.112,9.988-9.919
	c-6.858,25.473-17.773,44.948-32.739,58.095c-14.648,12.971-34.214,22.612-58.455,28.933c-1.809-2.622-3.577-5.272-5.213-7.997
	C614.785,980.385,606.466,943.943,615.588,911.334z M687.71,837.101c-44.956-8.164-84.479,26.034-95.978,67.579
	c-5.512,19.915-6.171,49.344-0.837,67.465c-17.229-44.791-14.561-90.135,7.653-125.159c15.802-24.915,39.951-40.425,64.594-41.49
	c22.922-1.006,45.218,4.805,63.114,15.648c5.798,15.043,9.264,30.484,10.329,46.313c-0.178,5.519-0.502,10.831-0.901,16.036
	C732.068,859.461,710.554,841.091,687.71,837.101z M456.237,963.129c3.751,11.802,11.806,22.116,22.588,28.262
	c29.799,16.988,70.176-2.276,77.644-35.241c11.021,24.454,25.461,47.275,43.409,67.25c-13.506,1.502-28.025,2.27-43.578,2.27
	c-52.97,0-95.474-15.539-129.942-47.503c-0.084-0.077-0.168-0.153-0.252-0.23c-12.14-10.982-25.753-26.882-40.773-47.568
	c-2.056-2.847,31.697-21.293,34.41-22.427c20.248-8.467,43.422-11.75,65.131-8.052C457.257,911.849,448.993,940.347,456.237,963.129
	z M486.528,914.168c6.515-6.152,14.986-10.013,22.659-7.352c10.668,3.701,21.704,12.385,28.616,19.327
	c5.583,11.455,3.956,27.6-3.392,35.92c-10.252,11.605-28.273,12.324-41.077,4.759C474.014,955.404,470.271,929.521,486.528,914.168z
	 M678.67,750.358c11.587,11.728,21.466,23.774,29.609,36.132c-10.083,4.694-22.491,5.445-33.668,1.967
	c-7.007-2.181-15.298-6.755-19.95-12.845c10.08,2.119,20.448-3.421,23.749-13.313C679.75,758.283,679.754,754.145,678.67,750.358z
	 M637.506,750.691c-5.653,12.733-1.777,31.965,19.159,41.55c-27.027,3.242-52.758,20.597-69.74,47.373
	c-14.695,23.173-21.691,50.298-20.962,78.81c-6.359-20.278-10.169-41.327-11.024-62.484c-2.203-54.503,15.401-120.698,58.94-156.831
	c18.69,11.935,35.274,24.29,49.731,37.051C653.619,733.931,641.75,741.13,637.506,750.691z M533.042,871.628
	c-1.94-2.727-3.992-5.39-6.3-7.884c-6.922-7.552-15.658-13.702-25.237-17.649c-15.523-6.396-32.633-12.93-42.923-26.975
	c-10.394-14.076-10.319-34.209-16.043-50.405c-1.599-4.523-3.338-8.985-5.233-13.386c10.661-0.637,21.19,0.254,30.892,3.473
	c30.807,10.218,44.4,43.088,53.435,71.463C525.975,843.907,530.256,857.567,533.042,871.628z M346.439,871.265
	c-22.524-37.018-47.384-82.095-74.493-135.133c-0.848-1.66-1.893-3.157-3.021-4.573c3.918,1.406,7.814,3.177,11.631,5.331
	c27.542,15.545,46.906,44.934,57.178,74.21C344.341,829.924,347.529,851.32,346.439,871.265z M260.111,898.133
	c6.582-6.581,20.837-20.836,37.826-37.824c2.276,3.945,4.531,7.814,6.765,11.614c-6.567,6.569-12.654,12.656-17.894,17.897
	c-10.994,10.994-27.263,23.705-30.768,39.402v-27.121C257.979,899.981,256.932,901.487,260.111,898.133z M256.04,881.82l0.99-95.39
	c6.28,11.528,29.501,53.894,35.502,64.443l-27.994,27.996C261.665,879.922,258.832,880.9,256.04,881.82z M315.816,890.494
	c5.495,9.02,10.866,17.602,16.11,25.711c-11.023,11.023-20.056,20.056-24.628,24.624c0.212,4.019-29.212,18.248-27.936-11.1
	c3.545-8.368,4.402-6.513,6.381-9.163C290.634,915.676,302.031,904.279,315.816,890.494z M291.107,969.231
	c11.559,1.645,21.397-4.22,29.641-11.738c3.913-3.57,7.535-7.449,11.129-11.337c1.042-1.127,11.879-12.111,11.643-12.461
	c2.701,3.973,5.371,7.822,8.004,11.538l-26.049,26.049c-24.592,22.403-52.879,16.419-69.434-0.956v-29.083
	C260.581,956.466,276.301,967.12,291.107,969.231z M351.976,959.621l5.764-5.764c10.737,14.63,20.879,27.055,30.461,37.32
	c-21.427,18.751-42.073,31.02-53.082,36.917C336.65,1014.842,340.863,988.705,351.976,959.621z M256.04,993.962
	c0.917-2.105,1.692-4.573,2.236-7.558c5.685,3.723,11.883,6.314,18.284,7.889c-15.221,21.859,27.379,27.408,17.21,1.66
	c13.932-0.68,27.65-6.193,38.4-16.595c-11.508,27.904-27.075,43.624-43.588,50.544c-11.55-9.41-22.415-19.581-32.542-30.558V993.962
	z M326.479,1014.104c-12.993,51.889,18.411,21.251,62.754-9.8c-11.481,27.766-26.491,48.375-43.493,62.865
	c-17.284-8.892-33.461-19.043-48.507-30.456C307.449,1031.916,317.37,1024.547,326.479,1014.104z M384.624,1046.569
	c1.394,14.29,12.291,33.708,27.013,42.281c-1.001,1.144-2.1,2.35-3.241,3.58c-16.977-5.185-33.15-11.305-48.507-18.361
	C367.545,1067.837,377.898,1057.461,384.624,1046.569z M431.316,1029.072l0.514-1.24c8.318,5.302,16.99,9.979,26.005,14.045
	c-3.599,6.471-11.523,9.415-18.524,6.515C431.781,1045.269,428.194,1036.601,431.316,1029.072z M609.11,1070.367v-11.73
	c10.359-1.32,20.206-3.074,29.572-5.225c0,8.666-0.002,14.651-0.003,16.429C641.35,1082.846,613.087,1095.375,609.11,1070.367z
	 M564.591,1077.796c0.733,13.723,6.141,26.178,14.653,35.892c-4.267,0.072-8.496,0.183-12.839,0.183
	c-3.651,0-7.268-0.042-10.873-0.097C556.043,1103.036,558.837,1091.053,564.591,1077.796z M574.648,1061.405
	c4.571-0.177,9.06-0.423,13.472-0.734v9.695c0,19.727,16.049,35.773,35.776,35.773s35.773-16.046,35.773-35.773v-22.737
	c4.549-1.484,8.966-3.071,13.23-4.785c0.365,25.35,1.245,49.216-11.685,64.345c-21.227,3.19-43.687,5.24-67.386,6.119
	C575.99,1101.533,574.184,1083.286,574.648,1061.405z M784.366,1028.018c-6.023-14.494-16.673-40.124-28.233-67.944
	c5.482-14.053,9.643-29.757,12.439-47.122c15.896,38.254,33.036,79.499,41.991,101.052c2.134,10.972,16.878,20.396-1.774,34.256
	C789.09,1053.106,788.265,1034.488,784.366,1028.018z M813.736,966.924c-13.027-31.341-29.113-70.049-41.04-98.75
	c0.008-0.307,0.03-0.601,0.04-0.911c0.007-0.255,0.003-0.511-0.013-0.766c-0.758-12.693-2.74-25.133-5.907-37.32
	c17.052,19.325,77.018,176.469,83.628,189.262c-3.694,3.955-7.545,7.824-11.53,11.616
	C836.823,1012.189,821.99,993.956,813.736,966.924z M845.47,979.076l-50.221-120.02l97.873,97.873
	c-7.202,14.688-15.891,28.594-25.958,41.75C860.041,992.895,852.699,986.369,845.47,979.076z M784.361,833.031l-0.208,0.087
	l-5.781-5.783h18.944c0.101,0.057,67.702,67.705,105.946,105.956c-1.675,4.553-3.493,9.032-5.418,13.454
	C874.405,923.268,784.419,833.839,784.361,833.031z M806.865,587.377c-52.047-39.511-126.728-85.403-221.949-136.395
	c-22.942-12.35-43.246-24.528-60.962-36.522l6.873-7.856c16.479,11.122,35.922,22.879,58.944,35.271
	c95.718,51.258,170.856,97.445,223.323,137.268l0.302,0.239c2.727,2.156,5.406,4.336,8.052,6.536l-0.291,13.303
	C816.528,595.199,811.765,591.249,806.865,587.377z M489.583,363.096c21.172-11.971,53.055-6.32,60.478,11.899
	c6.986,17.122,15.665,33.515,25.508,49.155C535.148,401.061,507.858,380.62,489.583,363.096z M534.308,312.605
	c0.912,10.604,2.807,20.973,5.379,31.123c-19.611-10.584-48.502-7.706-65.802,2.518c-14.754-18.095-19.209-32.101-19.955-41.582
	c0.186-36.157,11.55-66.176,34.725-91.746c21.407-23.702,94.686-48.257,154.307-29.302c-32.317-1.38-65.884,12.157-85.74,38.283
	C537.64,247.369,531.607,281.165,534.308,312.605z M598.158,168.614c-53.801,0-92.788,12.966-115.875,38.526
	c-24.666,27.216-36.756,59.103-36.954,97.482c0,0.239,0.007,0.48,0.027,0.719c1.633,20.727,16.802,51.545,71.3,91.328l-6.86,7.841
	c-47.693-34.876-72.799-68.097-74.79-99.204c0.057-40.784,13.39-76.142,39.639-105.106c25.113-27.808,66.67-41.907,123.512-41.907
	c24.154,0,46.656,4.385,67.334,13.027l-3.735,9.484C642.378,172.646,621.297,168.614,598.158,168.614z M644.903,89.098
	c30.32,13.79,29.211,37.36,27.93,66.61c-4.314-1.828-8.708-3.466-13.165-4.951v-14.478c0-19.727-16.046-35.775-35.773-35.775
	s-35.776,16.048-35.776,35.775v4.976c-4.44,0.129-8.802,0.338-13.067,0.64c3.007-29.409,11.258-48.852,31.119-55.495
	C619.39,86.797,632.32,87.667,644.903,89.098z M682.789,159.777c11.36-25.271,16.204-41.288,21.531-59.268
	c1.982,0.644,18.868,5.106,22.924,6.856c3.956,15.268,8.997,40.287,9.247,69.336l-6.97,16.814c-1.989-1.922-3.95-3.768-5.872-5.522
	C712.217,177.875,695.672,166.637,682.789,159.777z M683.322,131.859c-0.188-15.05-6.011-28.732-15.431-39.118
	c0.186-0.072,0.348-0.153,0.528-0.227c8.073,1.383,16.014,2.97,23.799,4.805C691.557,107.683,688.779,119.195,683.322,131.859z
	 M638.679,136.279v8.864c-9.575-1.969-19.433-3.222-29.57-3.741c0.002-1.893,0.002-3.331,0.002-4.192
	C605.958,124.945,633.833,110.136,638.679,136.279z M564.467,131.843c-6.629-17.119-8.948-31.968-8.141-44.692
	c5.107-0.301,10.248-0.563,15.485-0.727c1.342,2.347,3.854,4.566,8.088,6.317C570.479,103.123,564.658,116.8,564.467,131.843z
	 M748.893,174.809c5.862-22.183,16.095-36.977,27.899-45.641c5.188,2.806,10.28,5.754,15.282,8.835
	c-0.971,0.265-1.935,0.511-2.937,0.848c-29.395,19.893-16.994,22.479-35.47,58.166c-1.967,4.746-4.067,9.811-6.245,15.063
	c-3.326-3.666-6.555-7.083-9.727-10.359L748.893,174.809z M739.255,111.824c5.312,2.058,10.552,4.225,15.703,6.53
	c-1.714,11.243-4.825,22.207-9.338,32.618C742.95,135.529,741.068,122.296,739.255,111.824z M836.359,219.045
	c-2.362,5.887-5.5,12.916-12.479,30.014c-5.806,13.116-11.206,26.234-16.286,38.876c-3.048-4.23-6.06-8.367-9.03-12.39
	c16.642-40.109,32.601-78.577,36.44-87.859c0.516-0.774,0.953-1.625,1.356-2.503V219.045z M838.231,242.744l0.833,88.736
	c-4.237-6.147-20.07-27.539-24.172-33.33L838.231,242.744z M800.927,215.055c-5.018,12.1-10.883,26.242-17.025,41.048
	c-7.301-9.464-14.336-18.237-21.099-26.313c9.736-23.477,18.175-43.822,22.753-54.85c-2.05-1.105,18.262-37.15,31.929-4.938
	C816.372,185.324,812.068,185.018,800.927,215.055z M245.886,335.895c-0.034-0.487-0.054-0.974-0.054-1.462
	c0-75.507,30.768-141.435,91.444-195.949C396.403,85.48,481.749,58.603,590.94,58.603c6.209,0,12.341,0.133,18.428,0.341v10.319
	c-6.083-0.213-12.219-0.339-18.428-0.339c-106.571,0-189.598,25.99-246.78,77.258c-58.398,52.461-88.007,115.798-88.007,188.251
	c0,0.218,0.007,0.433,0.024,0.652c5.944,78.276,44.01,143.992,113.227,195.391c4.37,3.162,9.109,6.478,14.043,9.874l-6.555,8.01
	c-4.81-3.316-9.443-6.561-13.728-9.661C291.526,485.501,252.065,417.259,245.886,335.895z M244.169,479.646
	c2.093-6.706,5.057-13.307,8.506-19.787c9.092,11.312,20.458,22.764,26.178,36.291c4.418,10.451,5.383,22.095,5.358,33.332
	c-0.035,16.357-4.78,32.834-6.263,49.011c-10.329-14.514-18.121-31.4-26.299-47.198C243.337,515.24,238.62,497.421,244.169,479.646z
	 M227.389,518.629c4.541,12.848,11.896,23.266,18.675,33.215c-3.684-1.825-19.068-11.361-25.321-14.098
	C222.401,533.15,225.509,522.494,227.389,518.629z M180.545,454.056c20.103,9.835,33.997,35.973,33.386,53.712
	c-0.21,6.078-0.84,15.235-3.968,20.628c-7.984-2.795-19.547-10.562-26.185-19.221C177.438,500.907,176.229,476.323,180.545,454.056z
	 M162.199,673.647c-13.319,2.835-27.946,1.129-38.597-7.629c-21.526-17.702-20.401-50.627-7.661-72.995
	c34.318-60.254,106.754-33.037,147.552,3.903c31.22,28.265,53.477,64.781,69.051,103.641
	c-44.437-51.988-102.151-57.759-132.045-38.852c9.472-18.907,10.166-28.431,7.696-38.885c-3.059-12.946-14.448-23.285-28.534-15.387
	c-7.485,4.197-10.151,13.667-5.952,21.152c4.197,7.486,13.667,10.152,21.153,5.954C197.54,649.024,176.887,670.521,162.199,673.647z
	 M182.015,794.912c-9.821-16.551-13.56-37.26-9.413-56.103c8.007-36.393,42.888-67.514,81.666-62.573
	c41.258,5.257,66.781,41.55,80.139,77.851c4.612,12.504,8.175,25.528,10.798,38.81c-3.526-12.088-8.212-23.953-14.443-35.234
	c-13.627-24.664-35.546-47.737-63.68-54.796c-31.196-7.826-64.604,8.881-76.809,38.669c-10.134,25.079-6.944,57.23,13.392,76.356
	C194.635,811.808,187.125,803.951,182.015,794.912z M219.911,748.659v71.751c-8.797-6.811-15.103-16.409-17.385-26.636
	c-4.691-21.023,0.561-45.905,20.451-57.696C221.02,739.878,219.911,744.16,219.911,748.659z M236.874,1019.099l9.464-4.981
	c73.434,77.601,181.053,116.957,320.067,116.957c106.925,0,192.145-21.498,253.989-64.006l5.84,8.533
	c-63.535,43.679-150.736,65.797-259.828,65.797C423.19,1141.398,312.371,1100.236,236.874,1019.099z M947.55,832.478
	c0.03,0.444,0.047,0.89,0.047,1.337c0,89.858-32.206,164.508-95.946,222.076c-3.738,3.271-7.604,6.425-11.548,9.511l-5.855-8.556
	c3.649-2.866,7.243-5.781,10.707-8.812c61.261-55.333,92.321-127.407,92.321-214.22c0-0.198-0.007-0.393-0.02-0.591
	c-5.927-86.257-39.252-159.515-99.231-218.4l0.304-14.015C904.491,662.512,941.216,740.297,947.55,832.478z M826.736,468.977
	c-7.357,33.356-8.316,93.918-8.316,103.24c-27.304-22.642-115.208-79.912-203.063-126.284
	c-14.099-16.745-26.746-35.281-36.411-54.954c-20.234-41.183-32.587-93.827-7.862-136.411
	c23.57-40.593,100.891-60.063,123.214-6.862c14.909,35.532-9.586,96.267-56.349,72.785c-18.593-9.336-17.981-31.3-12.654-39.957
	c6.66,19.313,31.91,11.534,35.445,0.942c3.945-11.815-3.204-22.085-14.576-25.541c-12.961-3.937-26.088,2.067-34.232,12.347
	c-10.813,13.643-10.176,33.504-2.349,48.381c17.466,33.204,61.956,34.546,89.117,13.175c27.727-21.795,32.48-55.963,19.977-95.694
	c28.077,30.474,62.7,76.887,103.293,138.52c6.451,9.795,20.422,15.753,34.294,9.897C843.23,410.117,833.302,439.212,826.736,468.977
	z M1025.015,474.491c-1.733,19.085-12.634,38.694-28.166,50.509c30.643-41.248,9.663-107.021-44.122-113.251
	c-32.194-3.618-62.472,18.646-80.063,44.012c-9.804,14.135-16.943,29.554-21.941,45.413c11.855-37.617,27.042-85.085,64.525-105.188
	C968.484,367.433,1030.855,410.172,1025.015,474.491z M1091.515,344.914c-1.703,19.923-12.219,38.216-34.478,41.985
	c-21.635,3.662-51.822-19.458-52.929-40.611c7.401,4.346,16.923,1.872,21.269-5.527c4.348-7.399,1.873-16.92-5.526-21.267
	c-9.556-5.614-22.433-1.072-27.178,7.659c-5.729,10.54-7.992,23.973,2.664,44.396c-39.958-22.198-104.83-3.607-130.335,38.26
	c10.243-24.195,23.001-47.281,38.79-67.934c18.685-24.441,42.977-46.786,70.766-60.882
	C1024.967,255.422,1097.184,278.618,1091.515,344.914z"/>
</svg>
