<?xml version="1.0" encoding="UTF-8" standalone="no" ?>
<!DOCTYPE svg PUBLIC "-//W3C//DTD SVG 1.1//EN" "http://www.w3.org/Graphics/SVG/1.1/DTD/svg11.dtd">
<svg xmlns="http://www.w3.org/2000/svg" xmlns:xlink="http://www.w3.org/1999/xlink" version="1.1" width="1280" height="1024" viewBox="0 0 1280 1024" xml:space="preserve">
<desc>Created with Fabric.js 5.3.0</desc>
<defs>
</defs>
<g transform="matrix(1 0 0 1 640 512)" id="background-logo"  >
<rect style="stroke: none; stroke-width: 0; stroke-dasharray: none; stroke-linecap: butt; stroke-dashoffset: 0; stroke-linejoin: miter; stroke-miterlimit: 4; fill: rgb(41,5,23); fill-rule: nonzero; opacity: 1;"  paint-order="stroke"  x="-640" y="-512" rx="0" ry="0" width="1280" height="1024" />
</g>
<g transform="matrix(1.9211538461538462 0 0 1.9211538461538462 640 395.6864080388972)" id="logo-logo"  >
<g style=""  paint-order="stroke"   >
		<g transform="matrix(0.917930923744532 0 0 0.9179309237445321 0 0)"  >
<g style=""  paint-order="stroke"   >
		<g transform="matrix(1 0 0 1 0 0)"  >
<linearGradient id="SVGID_34_673956" gradientUnits="userSpaceOnUse" gradientTransform="matrix(1 0 0 1 -100 -100)"  x1="0" y1="0" x2="0" y2="200">
<stop offset="0%" style="stop-color:rgb(238,99,168);stop-opacity: 1"/>
<stop offset="100%" style="stop-color:rgb(255,32,162);stop-opacity: 1"/>
</linearGradient>
<polygon style="stroke: none; stroke-width: 1; stroke-dasharray: none; stroke-linecap: butt; stroke-dashoffset: 0; stroke-linejoin: miter; stroke-miterlimit: 4; fill: url(#SVGID_34_673956); fill-rule: nonzero; opacity: 1;"  paint-order="stroke"  points="100,100 0,100 0,95.12 95.12,95.12 95.12,-95.12 -95.12,-95.12 -95.12,0 -100,0 -100,-100 100,-100 100,100 " />
</g>
</g>
</g>
</g>
</g>
<g transform="matrix(1.9211538461538462 0 0 1.9211538461538462 640.0264158653846 667.1128161574082)" id="text-logo"  >
<g style=""  paint-order="stroke"   >
		<g transform="matrix(1 0 0 1 0 0)" id="text-logo-path-0"  >
<path style="stroke: rgb(255,255,255); stroke-width: 0; stroke-dasharray: none; stroke-linecap: butt; stroke-dashoffset: 0; stroke-linejoin: miter; stroke-miterlimit: 4; fill: rgb(255,92,198); fill-rule: nonzero; opacity: 1;"  paint-order="stroke"  transform=" translate(-225.305, 19.25)" d="M 13.75 0.55 C 18.92 0.55 23.1 -0.88 23.1 -8.25 L 23.1 -9.35 C 23.1 -18.21 8.25 -23.87 8.25 -29.15 C 8.25 -34.16 10.39 -35.2 13.75 -35.2 C 17.11 -35.2 19.25 -34.16 19.25 -29.15 L 19.25 -26.95 L 23.1 -26.95 L 23.1 -30.25 C 23.1 -37.62 18.98 -39.05 13.75 -39.05 C 8.58 -39.05 4.4 -37.62 4.4 -30.25 L 4.4 -29.15 C 4.4 -21.23 19.25 -15.56 19.25 -9.35 C 19.25 -4.34 17.11 -3.3 13.75 -3.3 C 10.39 -3.3 8.25 -4.34 8.25 -9.35 L 8.25 -12.21 L 4.4 -12.21 L 4.4 -8.25 C 4.4 -0.99 8.53 0.55 13.75 0.55 Z M 48.84 0 L 52.69 0 L 54.89 -10.45 L 64.73 -10.45 L 66.94 0 L 70.78 0 L 62.7 -38.5 L 56.92 -38.5 Z M 55.61 -13.75 L 59.84 -33.94 L 64.08 -13.75 Z M 97.63 -38.5 L 97.63 0 L 101.47 0 L 101.47 -29.15 L 113.47 0 L 117.31 0 L 117.31 -38.5 L 113.47 -38.5 L 113.47 -9.35 L 101.47 -38.5 Z M 155.7 0.55 C 160.88 0.55 165.05 -0.88 165.05 -8.25 L 165.05 -9.35 C 165.05 -18.21 150.2 -23.87 150.2 -29.15 C 150.2 -34.16 152.35 -35.2 155.7 -35.2 C 159.06 -35.2 161.2 -34.16 161.2 -29.15 L 161.2 -26.95 L 165.05 -26.95 L 165.05 -30.25 C 165.05 -37.62 160.93 -39.05 155.7 -39.05 C 150.53 -39.05 146.35 -37.62 146.35 -30.25 L 146.35 -29.15 C 146.35 -21.23 161.2 -15.56 161.2 -9.35 C 161.2 -4.34 159.06 -3.3 155.7 -3.3 C 152.35 -3.3 150.2 -4.34 150.2 -9.35 L 150.2 -12.21 L 146.35 -12.21 L 146.35 -8.25 C 146.35 -0.99 150.48 0.55 155.7 0.55 Z M 194.15 -38.5 L 194.15 0 L 198 0 L 198 -16.28 L 199.15 -18.09 L 208.45 0 L 212.57 0 L 201.41 -21.73 L 211.8 -38.5 L 207.68 -38.5 L 198 -22.93 L 198 -38.5 Z M 238.31 0 L 242.16 0 L 242.16 -14.3 L 246.01 -14.3 L 252.89 0 L 257.01 0 L 249.97 -14.74 C 253.22 -15.56 255.37 -17.82 255.37 -23.1 L 255.37 -29.7 C 255.37 -37.07 251.24 -38.5 246.01 -38.5 L 238.31 -38.5 Z M 242.16 -17.6 L 242.16 -35.2 L 246.01 -35.2 C 249.37 -35.2 251.51 -34.16 251.51 -29.15 L 251.51 -23.65 C 251.51 -18.64 249.37 -17.6 246.01 -17.6 Z M 291 -38.5 L 282.2 -38.5 L 282.2 -35.2 L 284.68 -35.2 L 284.68 -3.3 L 282.2 -3.3 L 282.2 0 L 291 0 L 291 -3.3 L 288.53 -3.3 L 288.53 -35.2 L 291 -35.2 Z M 333.79 -38.5 L 315.64 -38.5 L 315.64 -35.2 L 322.79 -35.2 L 322.79 0 L 326.64 0 L 326.64 -35.2 L 333.79 -35.2 Z M 367.23 -38.5 L 358.43 -38.5 L 358.43 -35.2 L 360.91 -35.2 L 360.91 -3.3 L 358.43 -3.3 L 358.43 0 L 367.23 0 L 367.23 -3.3 L 364.76 -3.3 L 364.76 -35.2 L 367.23 -35.2 Z M 394.9 -36.3 L 395.45 -25.3 L 398.75 -25.3 L 399.3 -36.3 Z M 436.86 0.55 C 442.03 0.55 446.21 -0.88 446.21 -8.25 L 446.21 -9.35 C 446.21 -18.21 431.36 -23.87 431.36 -29.15 C 431.36 -34.16 433.51 -35.2 436.86 -35.2 C 440.22 -35.2 442.36 -34.16 442.36 -29.15 L 442.36 -26.95 L 446.21 -26.95 L 446.21 -30.25 C 446.21 -37.62 442.09 -39.05 436.86 -39.05 C 431.69 -39.05 427.51 -37.62 427.51 -30.25 L 427.51 -29.15 C 427.51 -21.23 442.36 -15.56 442.36 -9.35 C 442.36 -4.34 440.22 -3.3 436.86 -3.3 C 433.51 -3.3 431.36 -4.34 431.36 -9.35 L 431.36 -12.21 L 427.51 -12.21 L 427.51 -8.25 C 427.51 -0.99 431.64 0.55 436.86 0.55 Z" stroke-linecap="round" />
</g>
</g>
</g>
<g transform="matrix(1.9211538461538462 0 0 1.9211538461538462 640 399.76284281173395)" id="tagline-3a78d944-c0db-44d4-8ad5-60158c925687-logo"  >
<g style=""  paint-order="stroke"   >
		<g transform="matrix(1 0 0 1 0 0)" id="tagline-3a78d944-c0db-44d4-8ad5-60158c925687-logo-path-0"  >
<linearGradient id="SVGID_673957" gradientUnits="userSpaceOnUse" gradientTransform="matrix(1 0 0 1 6.159999999999998 -54.67)"  x1="-6.160000000000025" y1="-13.023780000000016" x2="-6.160000000000025" y2="73.97621999999998">
<stop offset="0%" style="stop-color:rgb(238,99,168);stop-opacity: 1"/>
<stop offset="100%" style="stop-color:rgb(255,32,162);stop-opacity: 1"/>
</linearGradient>
<path style="stroke: rgb(255,255,255); stroke-width: 0; stroke-dasharray: none; stroke-linecap: butt; stroke-dashoffset: 0; stroke-linejoin: miter; stroke-miterlimit: 4; fill: url(#SVGID_673957); fill-rule: nonzero; opacity: 1;"  paint-order="stroke"  transform=" translate(-19.25, 26.95)" d="M 19.25 0.77 C 26.49 0.77 32.34 -1.23 32.34 -11.55 L 32.34 -13.09 C 32.34 -25.49 11.55 -33.42 11.55 -40.81 C 11.55 -47.82 14.55 -49.28 19.25 -49.28 C 23.95 -49.28 26.95 -47.82 26.95 -40.81 L 26.95 -37.73 L 32.34 -37.73 L 32.34 -42.35 C 32.34 -52.67 26.57 -54.67 19.25 -54.67 C 12.01 -54.67 6.16 -52.67 6.16 -42.35 L 6.16 -40.81 C 6.16 -29.72 26.95 -21.79 26.95 -13.09 C 26.95 -6.08 23.95 -4.62 19.25 -4.62 C 14.55 -4.62 11.55 -6.08 11.55 -13.09 L 11.55 -17.09 L 6.16 -17.09 L 6.16 -11.55 C 6.16 -1.39 11.94 0.77 19.25 0.77 Z" stroke-linecap="round" />
</g>
</g>
</g>
<g transform="matrix(1.9211538461538462 0 0 1.9211538461538462 639.5123214073313 766.181340772793)" id="tagline-ee21041c-fd7a-4646-a088-df0a2334375e-logo"  >
<g style=""  paint-order="stroke"   >
		<g transform="matrix(1 0 0 1 0 0)" id="tagline-ee21041c-fd7a-4646-a088-df0a2334375e-logo-path-0"  >
<path style="stroke: none; stroke-width: 0; stroke-dasharray: none; stroke-linecap: butt; stroke-dashoffset: 0; stroke-linejoin: miter; stroke-miterlimit: 4; fill: rgb(255,75,188); fill-rule: nonzero; opacity: 1;"  paint-order="stroke"  transform=" translate(-151.57000000000002, 12.25)" d="M 3.15 0 L 5.6 0 L 5.6 -8.75 L 8.05 -8.75 C 11.38 -8.75 14 -9.73 14 -14.35 L 14 -18.9 C 14 -23.59 11.38 -24.5 8.05 -24.5 L 3.15 -24.5 Z M 5.6 -10.85 L 5.6 -22.4 L 8.05 -22.4 C 10.19 -22.4 11.55 -21.74 11.55 -18.55 L 11.55 -14.7 C 11.55 -11.52 10.19 -10.85 8.05 -10.85 Z M 39.62 -19.25 L 39.62 -5.25 C 39.62 -0.56 42.28 0.35 45.57 0.35 C 48.9 0.35 51.52 -0.63 51.52 -5.25 L 51.52 -19.25 C 51.52 -23.94 48.9 -24.85 45.57 -24.85 C 42.28 -24.85 39.62 -23.94 39.62 -19.25 Z M 42.07 -5.95 L 42.07 -18.55 C 42.07 -21.74 43.44 -22.4 45.57 -22.4 C 47.71 -22.4 49.07 -21.74 49.07 -18.55 L 49.07 -5.95 C 49.07 -2.77 47.71 -2.1 45.57 -2.1 C 43.44 -2.1 42.07 -2.77 42.07 -5.95 Z M 78.54 0 L 80.99 0 L 80.99 -9.1 L 83.44 -9.1 L 87.82 0 L 90.44 0 L 85.96 -9.38 C 88.03 -9.91 89.39 -11.34 89.39 -14.7 L 89.39 -18.9 C 89.39 -23.59 86.77 -24.5 83.44 -24.5 L 78.54 -24.5 Z M 80.99 -11.2 L 80.99 -22.4 L 83.44 -22.4 C 85.58 -22.4 86.94 -21.74 86.94 -18.55 L 86.94 -15.05 C 86.94 -11.87 85.58 -11.2 83.44 -11.2 Z M 124.99 -24.5 L 113.44 -24.5 L 113.44 -22.4 L 117.98 -22.4 L 117.98 0 L 120.44 0 L 120.44 -22.4 L 124.99 -22.4 Z M 150.08 -24.5 L 150.08 0 L 152.53 0 L 152.53 -11.2 L 158.48 -11.2 L 158.48 -13.3 L 152.53 -13.3 L 152.53 -22.4 L 160.23 -22.4 L 160.23 -24.5 Z M 185.15 -19.25 L 185.15 -5.25 C 185.15 -0.56 187.81 0.35 191.1 0.35 C 194.43 0.35 197.05 -0.63 197.05 -5.25 L 197.05 -19.25 C 197.05 -23.94 194.43 -24.85 191.1 -24.85 C 187.81 -24.85 185.15 -23.94 185.15 -19.25 Z M 187.6 -5.95 L 187.6 -18.55 C 187.6 -21.74 188.97 -22.4 191.1 -22.4 C 193.24 -22.4 194.6 -21.74 194.6 -18.55 L 194.6 -5.95 C 194.6 -2.77 193.24 -2.1 191.1 -2.1 C 188.97 -2.1 187.6 -2.77 187.6 -5.95 Z M 224.07 -24.5 L 224.07 0 L 232.82 0 L 232.82 -2.1 L 226.52 -2.1 L 226.52 -24.5 Z M 262.12 -24.5 L 256.51 -24.5 L 256.51 -22.4 L 258.09 -22.4 L 258.09 -2.1 L 256.51 -2.1 L 256.51 0 L 262.12 0 L 262.12 -2.1 L 260.54 -2.1 L 260.54 -22.4 L 262.12 -22.4 Z M 288.09 -19.25 L 288.09 -5.25 C 288.09 -0.56 290.75 0.35 294.04 0.35 C 297.36 0.35 299.99 -0.63 299.99 -5.25 L 299.99 -19.25 C 299.99 -23.94 297.36 -24.85 294.04 -24.85 C 290.75 -24.85 288.09 -23.94 288.09 -19.25 Z M 290.54 -5.95 L 290.54 -18.55 C 290.54 -21.74 291.9 -22.4 294.04 -22.4 C 296.17 -22.4 297.54 -21.74 297.54 -18.55 L 297.54 -5.95 C 297.54 -2.77 296.17 -2.1 294.04 -2.1 C 291.9 -2.1 290.54 -2.77 290.54 -5.95 Z" stroke-linecap="round" />
</g>
</g>
</g>
</svg>